FFmpeg version SVN-r25716, Copyright (c) 2000-2010 the FFmpeg developers  built on Nov 10 2010 12:23:18 with gcc 4.1.2 20080704 (Red Hat 4.1.2-48)  configuration: --enable-libmp3lame --enable-shared --disable-mmx --arch=x86_64  libavutil     50.33. 0 / 50.33. 0  libavcore      0.12. 1 /  0.12. 1  libavcodec    52.94. 4 / 52.94. 4  libavformat   52.84. 0 / 52.84. 0  libavdevice   52. 2. 2 / 52. 2. 2  libavfilter    1.59. 0 /  1.59. 0  libswscale     0.12. 0 /  0.12. 0[mpegvideo @ 0x1425a4c0] Estimating duration from bitrate, this may be inaccurateInput #0, mpegvideo, from '/RAID10/data/converted_video_files/31942.mpeg':  Duration: 00:00:00.04, bitrate: 104856 kb/s    Stream #0.0: Video: mpeg1video, yuv420p, 512x512 [PAR 1:1 DAR 1:1], 104857 kb/s, 25 fps, 25 tbr, 1200k tbn, 25 tbc[buffer @ 0x14263280] w:512 h:512 pixfmt:yuv420pOutput #0, flv, to '/RAID10/data/converted_video_files/31942.flv':  Metadata:    encoder         : Lavf52.84.0    Stream #0.0: Video: flv, yuv420p, 512x512 [PAR 1:1 DAR 1:1], q=2-31, 600 kb/s, 1k tbn, 24 tbcStream mapping:  Stream #0.0 -> #0.0Press [q] to stop encodingframe=   40 fps=  0 q=3.5 size=     280kB time=1.71 bitrate=1340.7kbits/s dup=0 drop=2    frame=   42 fps=  0 q=4.6 Lsize=     280kB time=1.79 bitrate=1280.0kbits/s dup=0 drop=2    video:279kB audio:0kB global headers:0kB muxing overhead 0.308574%